<svg xmlns="http://www.w3.org/2000/svg" viewBox="0 0 250 289"><g style="display:inline"><g style="display:inline;fill:none;stroke:#e6c786;stroke-width:3.44362;stroke-dasharray:none;stroke-dashoffset:0;stroke-opacity:1"><g style="fill:none;stroke:#e6c786;stroke-width:3.44362;stroke-dasharray:none;stroke-dashoffset:0;stroke-opacity:1"><path d="m315 551 5 4 17 11v-6c3-33 37-52 64-36l10 8c8 8 18 24 9 47-9 25-32 26-31 27 5 6 38 31 58 46 6 4 11 2 11-5l14-249c0-6-5-11-12-11-88 4-158 30-208 105-3 4-2 10 2 14l61 45z" style="display:inline;fill:none;stroke:#e6c786;stroke-width:3.44362;stroke-dasharray:none;stroke-dashoffset:0;stroke-opacity:1;paint-order:markers stroke fill" transform="matrix(.416 0 0 .401 -87 -134)"/></g><path d="M459 462a44 43 0 0 1-44 43 44 43 0 0 1-43-43 44 43 0 0 1 43-42 44 43 0 0 1 44 42" style="opacity:1;fill:none;fill-opacity:1;stroke:#e6c786;stroke-width:3.44362;stroke-dasharray:none;stroke-dashoffset:0;stroke-opacity:1" transform="matrix(.416 0 0 .401 -87 -134)"/><path d="M448 462a32 32 0 0 1-33 32 32 32 0 0 1-32-32 32 32 0 0 1 32-33 32 32 0 0 1 33 33m-34 102a33 33 0 0 1-33 33 33 33 0 0 1-33-33 33 33 0 0 1 33-34 33 33 0 0 1 33 34" style="fill:none;fill-opacity:1;stroke:#e6c786;stroke-width:3.44362;stroke-dasharray:none;stroke-dashoffset:0;stroke-opacity:1" transform="matrix(.416 0 0 .401 -87 -134)"/><path d="m444 518-3 1c-9 6-11 19-6 35 8-2 19-21 14-33-1-2-3-3-5-3z" style="opacity:1;fill:none;fill-opacity:1;stroke:#e6c786;stroke-width:3.44362;stroke-linecap:square;stroke-linejoin:bevel;stroke-dasharray:none;stroke-dashoffset:0;stroke-opacity:1" transform="matrix(.416 0 0 .401 -87 -134)"/><path d="M450 517c10 17-5 36-15 37-6-18-1-33 12-38l3 1z" style="fill:none;fill-opacity:1;stroke:#e6c786;stroke-width:3.44362;stroke-linecap:square;stroke-linejoin:bevel;stroke-dasharray:none;stroke-dashoffset:0;stroke-opacity:1;paint-order:normal" transform="matrix(.268 -.307 .318 .259 -234 50)"/><path d="M427 496c21 5 45 28 32 55-33-1-42-37-35-53 0-2 2-2 3-2z" style="fill:none;fill-opacity:1;stroke:#e6c786;stroke-width:3.44362;stroke-linecap:square;stroke-linejoin:bevel;stroke-dasharray:none;stroke-dashoffset:0;stroke-opacity:1;paint-order:normal" transform="matrix(.268 -.307 .318 .259 -240 67)"/><path d="M304 499c15-3 26-1 34 7-14 2-25 0-34-7zm66 54c3 1 5 4 4 8-1 3-4 6-6 5-3 0-5-3-5-6s4-7 7-7z" style="opacity:1;fill:none;fill-opacity:1;stroke:#e6c786;stroke-width:3.44362;stroke-linecap:square;stroke-linejoin:bevel;stroke-dasharray:none;stroke-dashoffset:0;stroke-opacity:1;paint-order:normal" transform="matrix(.416 0 0 .401 -87 -134)"/><path d="M392 541c3 1 6 3 5 7 0 2-4 4-6 4-3-1-6-5-5-7s2-4 6-4zm-1 29c3 1 7 4 5 8-2 3-2 4-4 4-3 0-5-3-5-6 0-2 1-6 4-6zm11-101c3 1 6 2 4 8-1 3-3 3-5 3s-4-3-4-5 2-6 5-6z" style="fill:none;fill-opacity:1;stroke:#e6c786;stroke-width:3.44362;stroke-linecap:square;stroke-linejoin:bevel;stroke-dasharray:none;stroke-dashoffset:0;stroke-opacity:1;paint-order:normal" transform="matrix(.416 0 0 .401 -87 -134)"/><path d="M243 485c20-31 84-115 223-111 4 0 7-3 7-7v-15c0-6-6-13-12-14a254 254 0 0 0-248 124c-2 4-1 9 3 12l17 12c4 3 8 2 10-1z" style="opacity:1;fill:none;fill-opacity:1;stroke:#e6c786;stroke-width:3.44362;stroke-linecap:square;stroke-linejoin:bevel;stroke-dasharray:none;stroke-dashoffset:0;stroke-opacity:1;paint-order:markers stroke fill" transform="matrix(.416 0 0 .401 -87 -134)"/><path d="M427 467c3 0 6 2 5 7-1 2-4 4-6 3-2 0-5-3-5-5 0-3 3-6 6-5zm-14-25c2 1 6 6 3 10-1 2-4 1-5 0-3-1-5-3-5-5 1-3 3-6 7-5z" style="fill:none;fill-opacity:1;stroke:#e6c786;stroke-width:3.44362;stroke-linecap:square;stroke-linejoin:bevel;stroke-dasharray:none;stroke-dashoffset:0;stroke-opacity:1;paint-order:normal" transform="matrix(.416 0 0 .401 -87 -134)"/><path d="M447 519c6 13-1 28-10 29l-3-2c-3-7-2-24 9-29 1-1 4 0 4 2z" style="fill:none;fill-opacity:1;stroke:#e6c786;stroke-width:3.44362;stroke-linecap:square;stroke-linejoin:bevel;stroke-dasharray:none;stroke-dashoffset:0;stroke-opacity:1;paint-order:normal" transform="matrix(.416 0 0 .401 -90 -106)"/></g><g style="display:inline;fill:none;stroke:#e6c786;stroke-width:3.44362;stroke-dasharray:none;stroke-dashoffset:0;stroke-opacity:1"><path d="M506 409c0 53 10 173 147 218 41 44 81-15 60-39 40-25 18-49 8-56 29-35-5-46-15-55 19-36-21-43-25-46-4-43-26-34-42-34-4-11-9-41-51-22-15-21-32-24-49-8-3 3-7 3-10 1-14-12-28-4-28 17 0 4 4 7 8 6 9-1 19-2 33-1 6-7 11-10 17-10v1l-7 9c6 0 22 2 32 6 10-4 24-13 28-6-5 1-10 4-16 7-1 1-1 2 1 2 16 6 22 11 29 16l4 1c7-1 13-5 23-1 1 1 2 3 0 4l-11 5c21 16 19 17 23 22 9 3 23 1 27 10 1 1 0 1-1 1l-15-1c-1 0-2 1-1 2 4 7 9 10 15 27 8 6 16 5 22 18l-1 1c-11-7-10-6-14-6 5 12 6 29 7 36 18 12 12 19 13 24-4-4-8-12-13-9-1 29-8 50-15 62-6 10-10 7-6-4l1-5c36-126-59-211-173-199-3 0-5 3-5 6z" style="opacity:1;fill:none;fill-opacity:1;stroke:#e6c786;stroke-width:3.44362;stroke-linecap:square;stroke-linejoin:bevel;stroke-dasharray:none;stroke-dashoffset:0;stroke-opacity:1;paint-order:normal" transform="matrix(.42 0 0 .45 -79 -160)"/><path d="M533 492c12 39 38 77 71 92 20 9 20 6 2-7-26-19-50-54-66-87-10-20-14-19-7 2z" style="opacity:1;fill:none;fill-opacity:1;stroke:#e6c786;stroke-width:3.44362;stroke-linecap:square;stroke-linejoin:bevel;stroke-dasharray:none;stroke-dashoffset:0;stroke-opacity:1;paint-order:normal" transform="matrix(.42 0 0 .45 -79 -160)"/></g><g style="display:inline;fill:none;stroke:#e6c786;stroke-width:3.44362;stroke-dasharray:none;stroke-dashoffset:0;stroke-opacity:1"><path d="M506 409c0 53 10 173 147 218 41 44 81-15 60-39 40-25 18-49 8-56 29-35-5-46-15-55 19-36-21-43-25-46-4-43-26-34-42-34-4-11-9-41-51-22-15-21-32-24-49-8-3 3-7 3-10 1-14-12-28-4-28 17 0 4 4 7 8 6 9-1 19-2 33-1 6-7 11-10 17-10v1l-7 9c6 0 22 2 32 6 10-4 24-13 28-6-5 1-10 4-16 7-1 1-1 2 1 2 16 6 22 11 29 16l4 1c7-1 13-5 23-1 1 1 2 3 0 4l-11 5c21 16 19 17 23 22 9 3 23 1 27 10 1 1 0 1-1 1l-15-1c-1 0-2 1-1 2 4 7 9 10 15 27 8 6 16 5 22 18l-1 1c-11-7-10-6-14-6 5 12 6 29 7 36 18 12 12 19 13 24-4-4-8-12-13-9-1 29-8 50-15 62-6 10-10 7-6-4l1-5c36-126-59-211-173-199-3 0-5 3-5 6z" style="opacity:1;fill:none;fill-opacity:1;stroke:#e6c786;stroke-width:3.44362;stroke-linecap:square;stroke-linejoin:bevel;stroke-dasharray:none;stroke-dashoffset:0;stroke-opacity:1;paint-order:normal" transform="matrix(-.42 -.002 .002 -.45 308 431)"/><path d="M533 492c12 39 38 77 71 92 20 9 20 6 2-7-26-19-50-54-66-87-10-20-14-19-7 2z" style="opacity:1;fill:none;fill-opacity:1;stroke:#e6c786;stroke-width:3.44362;stroke-linecap:square;stroke-linejoin:bevel;stroke-dasharray:none;stroke-dashoffset:0;stroke-opacity:1;paint-order:normal" transform="matrix(-.42 -.002 .002 -.45 308 431)"/></g><g style="display:inline;fill:none;stroke:#e6c786;stroke-width:3.44362;stroke-dasharray:none;stroke-dashoffset:0;stroke-opacity:1"><g style="fill:none;stroke:#e6c786;stroke-width:3.44362;stroke-dasharray:none;stroke-dashoffset:0;stroke-opacity:1"><path d="m315 551 5 4 17 11v-6c3-33 37-52 64-36l10 8c8 8 18 24 9 47-9 25-32 26-31 27 5 6 38 31 58 46 6 4 11 2 11-5l14-249c0-6-5-11-12-11-88 4-158 30-208 105-3 4-2 10 2 14l61 45z" style="display:inline;fill:none;stroke:#e6c786;stroke-width:3.44362;stroke-dasharray:none;stroke-dashoffset:0;stroke-opacity:1;paint-order:markers stroke fill" transform="matrix(-.416 .014 -.013 -.401 324 398)"/></g><path d="M459 462a44 43 0 0 1-44 43 44 43 0 0 1-43-43 44 43 0 0 1 43-42 44 43 0 0 1 44 42" style="opacity:1;fill:none;fill-opacity:1;stroke:#e6c786;stroke-width:3.44362;stroke-dasharray:none;stroke-dashoffset:0;stroke-opacity:1" transform="matrix(-.416 .014 -.013 -.401 324 398)"/><path d="M448 462a32 32 0 0 1-33 32 32 32 0 0 1-32-32 32 32 0 0 1 32-33 32 32 0 0 1 33 33m-34 102a33 33 0 0 1-33 33 33 33 0 0 1-33-33 33 33 0 0 1 33-34 33 33 0 0 1 33 34" style="fill:none;fill-opacity:1;stroke:#e6c786;stroke-width:3.44362;stroke-dasharray:none;stroke-dashoffset:0;stroke-opacity:1" transform="matrix(-.416 .014 -.013 -.401 324 398)"/><path d="m444 518-3 1c-9 6-11 19-6 35 8-2 19-21 14-33-1-2-3-3-5-3z" style="opacity:1;fill:none;fill-opacity:1;stroke:#e6c786;stroke-width:3.44362;stroke-linecap:square;stroke-linejoin:bevel;stroke-dasharray:none;stroke-dashoffset:0;stroke-opacity:1" transform="matrix(-.416 .014 -.013 -.401 324 398)"/><path d="M450 517c10 17-5 36-15 37-6-18-1-33 12-38l3 1z" style="fill:none;fill-opacity:1;stroke:#e6c786;stroke-width:3.44362;stroke-linecap:square;stroke-linejoin:bevel;stroke-dasharray:none;stroke-dashoffset:0;stroke-opacity:1;paint-order:normal" transform="matrix(-.258 .315 -.326 -.248 464 209)"/><path d="M427 496c21 5 45 28 32 55-33-1-42-37-35-53 0-2 2-2 3-2z" style="fill:none;fill-opacity:1;stroke:#e6c786;stroke-width:3.44362;stroke-linecap:square;stroke-linejoin:bevel;stroke-dasharray:none;stroke-dashoffset:0;stroke-opacity:1;paint-order:normal" transform="matrix(-.258 .315 -.326 -.248 469 192)"/><path d="M304 499c15-3 26-1 34 7-14 2-25 0-34-7zm66 54c3 1 5 4 4 8-1 3-4 6-6 5-3 0-5-3-5-6s4-7 7-7z" style="opacity:1;fill:none;fill-opacity:1;stroke:#e6c786;stroke-width:3.44362;stroke-linecap:square;stroke-linejoin:bevel;stroke-dasharray:none;stroke-dashoffset:0;stroke-opacity:1;paint-order:normal" transform="matrix(-.416 .014 -.013 -.401 324 398)"/><path d="M392 541c3 1 6 3 5 7 0 2-4 4-6 4-3-1-6-5-5-7s2-4 6-4zm-1 29c3 1 7 4 5 8-2 3-2 4-4 4-3 0-5-3-5-6 0-2 1-6 4-6zm11-101c3 1 6 2 4 8-1 3-3 3-5 3s-4-3-4-5 2-6 5-6z" style="fill:none;fill-opacity:1;stroke:#e6c786;stroke-width:3.44362;stroke-linecap:square;stroke-linejoin:bevel;stroke-dasharray:none;stroke-dashoffset:0;stroke-opacity:1;paint-order:normal" transform="matrix(-.416 .014 -.013 -.401 324 398)"/><path d="M243 485c20-31 84-115 223-111 4 0 7-3 7-7v-15c0-6-6-13-12-14a254 254 0 0 0-248 124c-2 4-1 9 3 12l17 12c4 3 8 2 10-1z" style="opacity:1;fill:none;fill-opacity:1;stroke:#e6c786;stroke-width:3.44362;stroke-linecap:square;stroke-linejoin:bevel;stroke-dasharray:none;stroke-dashoffset:0;stroke-opacity:1;paint-order:markers stroke fill" transform="matrix(-.416 .014 -.013 -.401 324 398)"/><path d="M427 467c3 0 6 2 5 7-1 2-4 4-6 3-2 0-5-3-5-5 0-3 3-6 6-5zm-14-25c2 1 6 6 3 10-1 2-4 1-5 0-3-1-5-3-5-5 1-3 3-6 7-5z" style="fill:none;fill-opacity:1;stroke:#e6c786;stroke-width:3.44362;stroke-linecap:square;stroke-linejoin:bevel;stroke-dasharray:none;stroke-dashoffset:0;stroke-opacity:1;paint-order:normal" transform="matrix(-.416 .014 -.013 -.401 324 398)"/><path d="M447 519c6 13-1 28-10 29l-3-2c-3-7-2-24 9-29 1-1 4 0 4 2z" style="fill:none;fill-opacity:1;stroke:#e6c786;stroke-width:3.44362;stroke-linecap:square;stroke-linejoin:bevel;stroke-dasharray:none;stroke-dashoffset:0;stroke-opacity:1;paint-order:normal" transform="matrix(-.416 .014 -.013 -.401 325 370)"/></g></g></svg>